<?xml version="1.0" encoding="utf-8" standalone="no"?>
<!DOCTYPE svg PUBLIC "-//W3C//DTD SVG 1.1//EN"
  "http://www.w3.org/Graphics/SVG/1.1/DTD/svg11.dtd">
<svg xmlns:xlink="http://www.w3.org/1999/xlink" width="1080pt" height="360pt" viewBox="0 0 1080 360" xmlns="http://www.w3.org/2000/svg" version="1.1">
 <metadata>
  <rdf:RDF xmlns:dc="http://purl.org/dc/elements/1.1/" xmlns:cc="http://creativecommons.org/ns#" xmlns:rdf="http://www.w3.org/1999/02/22-rdf-syntax-ns#">
   <cc:Work>
    <dc:type rdf:resource="http://purl.org/dc/dcmitype/StillImage"/>
    <dc:date>2025-05-19T23:28:01.590858</dc:date>
    <dc:format>image/svg+xml</dc:format>
    <dc:creator>
     <cc:Agent>
      <dc:title>Matplotlib v3.10.1, https://matplotlib.org/</dc:title>
     </cc:Agent>
    </dc:creator>
   </cc:Work>
  </rdf:RDF>
 </metadata>
 <defs>
  <style type="text/css">*{stroke-linejoin: round; stroke-linecap: butt}</style>
 </defs>
 <g id="figure_1">
  <g id="patch_1">
   <path d="M 0 360 
L 1080 360 
L 1080 0 
L 0 0 
z
" style="fill: #ffffff"/>
  </g>
  <g id="axes_1">
   <g id="patch_2">
    <path d="M 13.508234 265.51427 
L 403.129206 265.51427 
L 403.129206 30.48 
L 13.508234 30.48 
z
" style="fill: #ffffff"/>
   </g>
   <g id="patch_3">
    <path d="M 31.218278 618.065674 
L 87.144733 618.065674 
L 87.144733 199.704674 
L 31.218278 199.704674 
z
" clip-path="url(#p014bd891b1)" style="fill: #fcf8e9"/>
   </g>
   <g id="patch_4">
    <path d="M 105.786885 618.065674 
L 161.71334 618.065674 
L 161.71334 101.577867 
L 105.786885 101.577867 
z
" clip-path="url(#p014bd891b1)" style="fill: #fbf5e1"/>
   </g>
   <g id="patch_5">
    <path d="M 180.355492 618.065674 
L 236.281947 618.065674 
L 236.281947 85.713053 
L 180.355492 85.713053 
z
" clip-path="url(#p014bd891b1)" style="fill: #f8f0d0"/>
   </g>
   <g id="patch_6">
    <path d="M 254.924099 618.065674 
L 310.850554 618.065674 
L 310.850554 55.746184 
L 254.924099 55.746184 
z
" clip-path="url(#p014bd891b1)" style="fill: #f6ebbf"/>
   </g>
   <g id="patch_7">
    <path d="M 329.492706 618.065674 
L 385.419161 618.065674 
L 385.419161 88.650982 
L 329.492706 88.650982 
z
" clip-path="url(#p014bd891b1)" style="fill: #ffdf70"/>
   </g>
   <g id="matplotlib.axis_1">
    <g id="xtick_1">
     <g id="line2d_1">
      <defs>
       <path id="me3ee3412b7" d="M 0 0 
L 0 3.5 
" style="stroke: #000000; stroke-width: 0.8"/>
      </defs>
      <g>
       <use xlink:href="#me3ee3412b7" x="59.181505" y="265.51427" style="stroke: #000000; stroke-width: 0.8"/>
      </g>
     </g>
     <g id="text_1">
      <!-- Qwen2.5VL-7B -->
      <g transform="translate(30.3342 341.339182) rotate(-45) scale(0.12 -0.12)">
       <defs>
        <path id="DejaVuSans-51" d="M 2522 4238 
Q 1834 4238 1429 3725 
Q 1025 3213 1025 2328 
Q 1025 1447 1429 934 
Q 1834 422 2522 422 
Q 3209 422 3611 934 
Q 4013 1447 4013 2328 
Q 4013 3213 3611 3725 
Q 3209 4238 2522 4238 
z
M 3406 84 
L 4238 -825 
L 3475 -825 
L 2784 -78 
Q 2681 -84 2626 -87 
Q 2572 -91 2522 -91 
Q 1538 -91 948 567 
Q 359 1225 359 2328 
Q 359 3434 948 4092 
Q 1538 4750 2522 4750 
Q 3503 4750 4090 4092 
Q 4678 3434 4678 2328 
Q 4678 1516 4351 937 
Q 4025 359 3406 84 
z
" transform="scale(0.015625)"/>
        <path id="DejaVuSans-77" d="M 269 3500 
L 844 3500 
L 1563 769 
L 2278 3500 
L 2956 3500 
L 3675 769 
L 4391 3500 
L 4966 3500 
L 4050 0 
L 3372 0 
L 2619 2869 
L 1863 0 
L 1184 0 
L 269 3500 
z
" transform="scale(0.015625)"/>
        <path id="DejaVuSans-65" d="M 3597 1894 
L 3597 1613 
L 953 1613 
Q 991 1019 1311 708 
Q 1631 397 2203 397 
Q 2534 397 2845 478 
Q 3156 559 3463 722 
L 3463 178 
Q 3153 47 2828 -22 
Q 2503 -91 2169 -91 
Q 1331 -91 842 396 
Q 353 884 353 1716 
Q 353 2575 817 3079 
Q 1281 3584 2069 3584 
Q 2775 3584 3186 3129 
Q 3597 2675 3597 1894 
z
M 3022 2063 
Q 3016 2534 2758 2815 
Q 2500 3097 2075 3097 
Q 1594 3097 1305 2825 
Q 1016 2553 972 2059 
L 3022 2063 
z
" transform="scale(0.015625)"/>
        <path id="DejaVuSans-6e" d="M 3513 2113 
L 3513 0 
L 2938 0 
L 2938 2094 
Q 2938 2591 2744 2837 
Q 2550 3084 2163 3084 
Q 1697 3084 1428 2787 
Q 1159 2491 1159 1978 
L 1159 0 
L 581 0 
L 581 3500 
L 1159 3500 
L 1159 2956 
Q 1366 3272 1645 3428 
Q 1925 3584 2291 3584 
Q 2894 3584 3203 3211 
Q 3513 2838 3513 2113 
z
" transform="scale(0.015625)"/>
        <path id="DejaVuSans-32" d="M 1228 531 
L 3431 531 
L 3431 0 
L 469 0 
L 469 531 
Q 828 903 1448 1529 
Q 2069 2156 2228 2338 
Q 2531 2678 2651 2914 
Q 2772 3150 2772 3378 
Q 2772 3750 2511 3984 
Q 2250 4219 1831 4219 
Q 1534 4219 1204 4116 
Q 875 4013 500 3803 
L 500 4441 
Q 881 4594 1212 4672 
Q 1544 4750 1819 4750 
Q 2544 4750 2975 4387 
Q 3406 4025 3406 3419 
Q 3406 3131 3298 2873 
Q 3191 2616 2906 2266 
Q 2828 2175 2409 1742 
Q 1991 1309 1228 531 
z
" transform="scale(0.015625)"/>
        <path id="DejaVuSans-2e" d="M 684 794 
L 1344 794 
L 1344 0 
L 684 0 
L 684 794 
z
" transform="scale(0.015625)"/>
        <path id="DejaVuSans-35" d="M 691 4666 
L 3169 4666 
L 3169 4134 
L 1269 4134 
L 1269 2991 
Q 1406 3038 1543 3061 
Q 1681 3084 1819 3084 
Q 2600 3084 3056 2656 
Q 3513 2228 3513 1497 
Q 3513 744 3044 326 
Q 2575 -91 1722 -91 
Q 1428 -91 1123 -41 
Q 819 9 494 109 
L 494 744 
Q 775 591 1075 516 
Q 1375 441 1709 441 
Q 2250 441 2565 725 
Q 2881 1009 2881 1497 
Q 2881 1984 2565 2268 
Q 2250 2553 1709 2553 
Q 1456 2553 1204 2497 
Q 953 2441 691 2322 
L 691 4666 
z
" transform="scale(0.015625)"/>
        <path id="DejaVuSans-56" d="M 1831 0 
L 50 4666 
L 709 4666 
L 2188 738 
L 3669 4666 
L 4325 4666 
L 2547 0 
L 1831 0 
z
" transform="scale(0.015625)"/>
        <path id="DejaVuSans-4c" d="M 628 4666 
L 1259 4666 
L 1259 531 
L 3531 531 
L 3531 0 
L 628 0 
L 628 4666 
z
" transform="scale(0.015625)"/>
        <path id="DejaVuSans-2d" d="M 313 2009 
L 1997 2009 
L 1997 1497 
L 313 1497 
L 313 2009 
z
" transform="scale(0.015625)"/>
        <path id="DejaVuSans-37" d="M 525 4666 
L 3525 4666 
L 3525 4397 
L 1831 0 
L 1172 0 
L 2766 4134 
L 525 4134 
L 525 4666 
z
" transform="scale(0.015625)"/>
        <path id="DejaVuSans-42" d="M 1259 2228 
L 1259 519 
L 2272 519 
Q 2781 519 3026 730 
Q 3272 941 3272 1375 
Q 3272 1813 3026 2020 
Q 2781 2228 2272 2228 
L 1259 2228 
z
M 1259 4147 
L 1259 2741 
L 2194 2741 
Q 2656 2741 2882 2914 
Q 3109 3088 3109 3444 
Q 3109 3797 2882 3972 
Q 2656 4147 2194 4147 
L 1259 4147 
z
M 628 4666 
L 2241 4666 
Q 2963 4666 3353 4366 
Q 3744 4066 3744 3513 
Q 3744 3084 3544 2831 
Q 3344 2578 2956 2516 
Q 3422 2416 3680 2098 
Q 3938 1781 3938 1306 
Q 3938 681 3513 340 
Q 3088 0 2303 0 
L 628 0 
L 628 4666 
z
" transform="scale(0.015625)"/>
       </defs>
       <use xlink:href="#DejaVuSans-51"/>
       <use xlink:href="#DejaVuSans-77" transform="translate(78.710938 0)"/>
       <use xlink:href="#DejaVuSans-65" transform="translate(160.498047 0)"/>
       <use xlink:href="#DejaVuSans-6e" transform="translate(222.021484 0)"/>
       <use xlink:href="#DejaVuSans-32" transform="translate(285.400391 0)"/>
       <use xlink:href="#DejaVuSans-2e" transform="translate(349.023438 0)"/>
       <use xlink:href="#DejaVuSans-35" transform="translate(380.810547 0)"/>
       <use xlink:href="#DejaVuSans-56" transform="translate(444.433594 0)"/>
       <use xlink:href="#DejaVuSans-4c" transform="translate(512.841797 0)"/>
       <use xlink:href="#DejaVuSans-2d" transform="translate(566.804688 0)"/>
       <use xlink:href="#DejaVuSans-37" transform="translate(602.888672 0)"/>
       <use xlink:href="#DejaVuSans-42" transform="translate(666.511719 0)"/>
      </g>
     </g>
    </g>
    <g id="xtick_2">
     <g id="line2d_2">
      <g>
       <use xlink:href="#me3ee3412b7" x="133.750113" y="265.51427" style="stroke: #000000; stroke-width: 0.8"/>
      </g>
     </g>
     <g id="text_2">
      <!-- Qwen2.5VL-32B -->
      <g transform="translate(102.203427 346.737943) rotate(-45) scale(0.12 -0.12)">
       <defs>
        <path id="DejaVuSans-33" d="M 2597 2516 
Q 3050 2419 3304 2112 
Q 3559 1806 3559 1356 
Q 3559 666 3084 287 
Q 2609 -91 1734 -91 
Q 1441 -91 1130 -33 
Q 819 25 488 141 
L 488 750 
Q 750 597 1062 519 
Q 1375 441 1716 441 
Q 2309 441 2620 675 
Q 2931 909 2931 1356 
Q 2931 1769 2642 2001 
Q 2353 2234 1838 2234 
L 1294 2234 
L 1294 2753 
L 1863 2753 
Q 2328 2753 2575 2939 
Q 2822 3125 2822 3475 
Q 2822 3834 2567 4026 
Q 2313 4219 1838 4219 
Q 1578 4219 1281 4162 
Q 984 4106 628 3988 
L 628 4550 
Q 988 4650 1302 4700 
Q 1616 4750 1894 4750 
Q 2613 4750 3031 4423 
Q 3450 4097 3450 3541 
Q 3450 3153 3228 2886 
Q 3006 2619 2597 2516 
z
" transform="scale(0.015625)"/>
       </defs>
       <use xlink:href="#DejaVuSans-51"/>
       <use xlink:href="#DejaVuSans-77" transform="translate(78.710938 0)"/>
       <use xlink:href="#DejaVuSans-65" transform="translate(160.498047 0)"/>
       <use xlink:href="#DejaVuSans-6e" transform="translate(222.021484 0)"/>
       <use xlink:href="#DejaVuSans-32" transform="translate(285.400391 0)"/>
       <use xlink:href="#DejaVuSans-2e" transform="translate(349.023438 0)"/>
       <use xlink:href="#DejaVuSans-35" transform="translate(380.810547 0)"/>
       <use xlink:href="#DejaVuSans-56" transform="translate(444.433594 0)"/>
       <use xlink:href="#DejaVuSans-4c" transform="translate(512.841797 0)"/>
       <use xlink:href="#DejaVuSans-2d" transform="translate(566.804688 0)"/>
       <use xlink:href="#DejaVuSans-33" transform="translate(602.888672 0)"/>
       <use xlink:href="#DejaVuSans-32" transform="translate(666.511719 0)"/>
       <use xlink:href="#DejaVuSans-42" transform="translate(730.134766 0)"/>
      </g>
     </g>
    </g>
    <g id="xtick_3">
     <g id="line2d_3">
      <g>
       <use xlink:href="#me3ee3412b7" x="208.31872" y="265.51427" style="stroke: #000000; stroke-width: 0.8"/>
      </g>
     </g>
     <g id="text_3">
      <!-- ZoomEye -->
      <g transform="translate(190.626908 319.028196) rotate(-45) scale(0.12 -0.12)">
       <defs>
        <path id="DejaVuSans-5a" d="M 359 4666 
L 4025 4666 
L 4025 4184 
L 1075 531 
L 4097 531 
L 4097 0 
L 288 0 
L 288 481 
L 3238 4134 
L 359 4134 
L 359 4666 
z
" transform="scale(0.015625)"/>
        <path id="DejaVuSans-6f" d="M 1959 3097 
Q 1497 3097 1228 2736 
Q 959 2375 959 1747 
Q 959 1119 1226 758 
Q 1494 397 1959 397 
Q 2419 397 2687 759 
Q 2956 1122 2956 1747 
Q 2956 2369 2687 2733 
Q 2419 3097 1959 3097 
z
M 1959 3584 
Q 2709 3584 3137 3096 
Q 3566 2609 3566 1747 
Q 3566 888 3137 398 
Q 2709 -91 1959 -91 
Q 1206 -91 779 398 
Q 353 888 353 1747 
Q 353 2609 779 3096 
Q 1206 3584 1959 3584 
z
" transform="scale(0.015625)"/>
        <path id="DejaVuSans-6d" d="M 3328 2828 
Q 3544 3216 3844 3400 
Q 4144 3584 4550 3584 
Q 5097 3584 5394 3201 
Q 5691 2819 5691 2113 
L 5691 0 
L 5113 0 
L 5113 2094 
Q 5113 2597 4934 2840 
Q 4756 3084 4391 3084 
Q 3944 3084 3684 2787 
Q 3425 2491 3425 1978 
L 3425 0 
L 2847 0 
L 2847 2094 
Q 2847 2600 2669 2842 
Q 2491 3084 2119 3084 
Q 1678 3084 1418 2786 
Q 1159 2488 1159 1978 
L 1159 0 
L 581 0 
L 581 3500 
L 1159 3500 
L 1159 2956 
Q 1356 3278 1631 3431 
Q 1906 3584 2284 3584 
Q 2666 3584 2933 3390 
Q 3200 3197 3328 2828 
z
" transform="scale(0.015625)"/>
        <path id="DejaVuSans-45" d="M 628 4666 
L 3578 4666 
L 3578 4134 
L 1259 4134 
L 1259 2753 
L 3481 2753 
L 3481 2222 
L 1259 2222 
L 1259 531 
L 3634 531 
L 3634 0 
L 628 0 
L 628 4666 
z
" transform="scale(0.015625)"/>
        <path id="DejaVuSans-79" d="M 2059 -325 
Q 1816 -950 1584 -1140 
Q 1353 -1331 966 -1331 
L 506 -1331 
L 506 -850 
L 844 -850 
Q 1081 -850 1212 -737 
Q 1344 -625 1503 -206 
L 1606 56 
L 191 3500 
L 800 3500 
L 1894 763 
L 2988 3500 
L 3597 3500 
L 2059 -325 
z
" transform="scale(0.015625)"/>
       </defs>
       <use xlink:href="#DejaVuSans-5a"/>
       <use xlink:href="#DejaVuSans-6f" transform="translate(68.505859 0)"/>
       <use xlink:href="#DejaVuSans-6f" transform="translate(129.6875 0)"/>
       <use xlink:href="#DejaVuSans-6d" transform="translate(190.869141 0)"/>
       <use xlink:href="#DejaVuSans-45" transform="translate(288.28125 0)"/>
       <use xlink:href="#DejaVuSans-79" transform="translate(351.464844 0)"/>
       <use xlink:href="#DejaVuSans-65" transform="translate(410.644531 0)"/>
      </g>
     </g>
    </g>
    <g id="xtick_4">
     <g id="line2d_4">
      <g>
       <use xlink:href="#me3ee3412b7" x="282.887327" y="265.51427" style="stroke: #000000; stroke-width: 0.8"/>
      </g>
     </g>
     <g id="text_4">
      <!-- o3 -->
      <g transform="translate(279.933388 289.552449) rotate(-45) scale(0.12 -0.12)">
       <use xlink:href="#DejaVuSans-6f"/>
       <use xlink:href="#DejaVuSans-33" transform="translate(61.181641 0)"/>
      </g>
     </g>
    </g>
    <g id="xtick_5">
     <g id="line2d_5">
      <g>
       <use xlink:href="#me3ee3412b7" x="357.455934" y="265.51427" style="stroke: #000000; stroke-width: 0.8"/>
      </g>
     </g>
     <g id="text_5">
      <!-- DeepEyes -->
      <g transform="translate(338.603362 321.349716) rotate(-45) scale(0.12 -0.12)">
       <defs>
        <path id="DejaVuSans-44" d="M 1259 4147 
L 1259 519 
L 2022 519 
Q 2988 519 3436 956 
Q 3884 1394 3884 2338 
Q 3884 3275 3436 3711 
Q 2988 4147 2022 4147 
L 1259 4147 
z
M 628 4666 
L 1925 4666 
Q 3281 4666 3915 4102 
Q 4550 3538 4550 2338 
Q 4550 1131 3912 565 
Q 3275 0 1925 0 
L 628 0 
L 628 4666 
z
" transform="scale(0.015625)"/>
        <path id="DejaVuSans-70" d="M 1159 525 
L 1159 -1331 
L 581 -1331 
L 581 3500 
L 1159 3500 
L 1159 2969 
Q 1341 3281 1617 3432 
Q 1894 3584 2278 3584 
Q 2916 3584 3314 3078 
Q 3713 2572 3713 1747 
Q 3713 922 3314 415 
Q 2916 -91 2278 -91 
Q 1894 -91 1617 61 
Q 1341 213 1159 525 
z
M 3116 1747 
Q 3116 2381 2855 2742 
Q 2594 3103 2138 3103 
Q 1681 3103 1420 2742 
Q 1159 2381 1159 1747 
Q 1159 1113 1420 752 
Q 1681 391 2138 391 
Q 2594 391 2855 752 
Q 3116 1113 3116 1747 
z
" transform="scale(0.015625)"/>
        <path id="DejaVuSans-73" d="M 2834 3397 
L 2834 2853 
Q 2591 2978 2328 3040 
Q 2066 3103 1784 3103 
Q 1356 3103 1142 2972 
Q 928 2841 928 2578 
Q 928 2378 1081 2264 
Q 1234 2150 1697 2047 
L 1894 2003 
Q 2506 1872 2764 1633 
Q 3022 1394 3022 966 
Q 3022 478 2636 193 
Q 2250 -91 1575 -91 
Q 1294 -91 989 -36 
Q 684 19 347 128 
L 347 722 
Q 666 556 975 473 
Q 1284 391 1588 391 
Q 1994 391 2212 530 
Q 2431 669 2431 922 
Q 2431 1156 2273 1281 
Q 2116 1406 1581 1522 
L 1381 1569 
Q 847 1681 609 1914 
Q 372 2147 372 2553 
Q 372 3047 722 3315 
Q 1072 3584 1716 3584 
Q 2034 3584 2315 3537 
Q 2597 3491 2834 3397 
z
" transform="scale(0.015625)"/>
       </defs>
       <use xlink:href="#DejaVuSans-44"/>
       <use xlink:href="#DejaVuSans-65" transform="translate(77.001953 0)"/>
       <use xlink:href="#DejaVuSans-65" transform="translate(138.525391 0)"/>
       <use xlink:href="#DejaVuSans-70" transform="translate(200.048828 0)"/>
       <use xlink:href="#DejaVuSans-45" transform="translate(263.525391 0)"/>
       <use xlink:href="#DejaVuSans-79" transform="translate(326.708984 0)"/>
       <use xlink:href="#DejaVuSans-65" transform="translate(385.888672 0)"/>
       <use xlink:href="#DejaVuSans-73" transform="translate(447.412109 0)"/>
      </g>
     </g>
    </g>
   </g>
   <g id="patch_8">
    <path d="M 13.508234 265.51427 
L 403.129206 265.51427 
" style="fill: none; stroke: #000000; stroke-width: 0.8; stroke-linejoin: miter; stroke-linecap: square"/>
   </g>
   <g id="text_6">
    <!-- 71.2 -->
    <g transform="translate(43.595568 193.855183) scale(0.14 -0.14)">
     <defs>
      <path id="DejaVuSans-31" d="M 794 531 
L 1825 531 
L 1825 4091 
L 703 3866 
L 703 4441 
L 1819 4666 
L 2450 4666 
L 2450 531 
L 3481 531 
L 3481 0 
L 794 0 
L 794 531 
z
" transform="scale(0.015625)"/>
     </defs>
     <use xlink:href="#DejaVuSans-37"/>
     <use xlink:href="#DejaVuSans-31" transform="translate(63.623047 0)"/>
     <use xlink:href="#DejaVuSans-2e" transform="translate(127.246094 0)"/>
     <use xlink:href="#DejaVuSans-32" transform="translate(159.033203 0)"/>
    </g>
   </g>
   <g id="text_7">
    <!-- 87.9 -->
    <g transform="translate(118.164175 95.728376) scale(0.14 -0.14)">
     <defs>
      <path id="DejaVuSans-38" d="M 2034 2216 
Q 1584 2216 1326 1975 
Q 1069 1734 1069 1313 
Q 1069 891 1326 650 
Q 1584 409 2034 409 
Q 2484 409 2743 651 
Q 3003 894 3003 1313 
Q 3003 1734 2745 1975 
Q 2488 2216 2034 2216 
z
M 1403 2484 
Q 997 2584 770 2862 
Q 544 3141 544 3541 
Q 544 4100 942 4425 
Q 1341 4750 2034 4750 
Q 2731 4750 3128 4425 
Q 3525 4100 3525 3541 
Q 3525 3141 3298 2862 
Q 3072 2584 2669 2484 
Q 3125 2378 3379 2068 
Q 3634 1759 3634 1313 
Q 3634 634 3220 271 
Q 2806 -91 2034 -91 
Q 1263 -91 848 271 
Q 434 634 434 1313 
Q 434 1759 690 2068 
Q 947 2378 1403 2484 
z
M 1172 3481 
Q 1172 3119 1398 2916 
Q 1625 2713 2034 2713 
Q 2441 2713 2670 2916 
Q 2900 3119 2900 3481 
Q 2900 3844 2670 4047 
Q 2441 4250 2034 4250 
Q 1625 4250 1398 4047 
Q 1172 3844 1172 3481 
z
" transform="scale(0.015625)"/>
      <path id="DejaVuSans-39" d="M 703 97 
L 703 672 
Q 941 559 1184 500 
Q 1428 441 1663 441 
Q 2288 441 2617 861 
Q 2947 1281 2994 2138 
Q 2813 1869 2534 1725 
Q 2256 1581 1919 1581 
Q 1219 1581 811 2004 
Q 403 2428 403 3163 
Q 403 3881 828 4315 
Q 1253 4750 1959 4750 
Q 2769 4750 3195 4129 
Q 3622 3509 3622 2328 
Q 3622 1225 3098 567 
Q 2575 -91 1691 -91 
Q 1453 -91 1209 -44 
Q 966 3 703 97 
z
M 1959 2075 
Q 2384 2075 2632 2365 
Q 2881 2656 2881 3163 
Q 2881 3666 2632 3958 
Q 2384 4250 1959 4250 
Q 1534 4250 1286 3958 
Q 1038 3666 1038 3163 
Q 1038 2656 1286 2365 
Q 1534 2075 1959 2075 
z
" transform="scale(0.015625)"/>
     </defs>
     <use xlink:href="#DejaVuSans-38"/>
     <use xlink:href="#DejaVuSans-37" transform="translate(63.623047 0)"/>
     <use xlink:href="#DejaVuSans-2e" transform="translate(127.246094 0)"/>
     <use xlink:href="#DejaVuSans-39" transform="translate(159.033203 0)"/>
    </g>
   </g>
   <g id="text_8">
    <!-- 90.6 -->
    <g transform="translate(192.732782 79.863562) scale(0.14 -0.14)">
     <defs>
      <path id="DejaVuSans-30" d="M 2034 4250 
Q 1547 4250 1301 3770 
Q 1056 3291 1056 2328 
Q 1056 1369 1301 889 
Q 1547 409 2034 409 
Q 2525 409 2770 889 
Q 3016 1369 3016 2328 
Q 3016 3291 2770 3770 
Q 2525 4250 2034 4250 
z
M 2034 4750 
Q 2819 4750 3233 4129 
Q 3647 3509 3647 2328 
Q 3647 1150 3233 529 
Q 2819 -91 2034 -91 
Q 1250 -91 836 529 
Q 422 1150 422 2328 
Q 422 3509 836 4129 
Q 1250 4750 2034 4750 
z
" transform="scale(0.015625)"/>
      <path id="DejaVuSans-36" d="M 2113 2584 
Q 1688 2584 1439 2293 
Q 1191 2003 1191 1497 
Q 1191 994 1439 701 
Q 1688 409 2113 409 
Q 2538 409 2786 701 
Q 3034 994 3034 1497 
Q 3034 2003 2786 2293 
Q 2538 2584 2113 2584 
z
M 3366 4563 
L 3366 3988 
Q 3128 4100 2886 4159 
Q 2644 4219 2406 4219 
Q 1781 4219 1451 3797 
Q 1122 3375 1075 2522 
Q 1259 2794 1537 2939 
Q 1816 3084 2150 3084 
Q 2853 3084 3261 2657 
Q 3669 2231 3669 1497 
Q 3669 778 3244 343 
Q 2819 -91 2113 -91 
Q 1303 -91 875 529 
Q 447 1150 447 2328 
Q 447 3434 972 4092 
Q 1497 4750 2381 4750 
Q 2619 4750 2861 4703 
Q 3103 4656 3366 4563 
z
" transform="scale(0.015625)"/>
     </defs>
     <use xlink:href="#DejaVuSans-39"/>
     <use xlink:href="#DejaVuSans-30" transform="translate(63.623047 0)"/>
     <use xlink:href="#DejaVuSans-2e" transform="translate(127.246094 0)"/>
     <use xlink:href="#DejaVuSans-36" transform="translate(159.033203 0)"/>
    </g>
   </g>
   <g id="text_9">
    <!-- 95.7 -->
    <g transform="translate(267.301389 49.896693) scale(0.14 -0.14)">
     <use xlink:href="#DejaVuSans-39"/>
     <use xlink:href="#DejaVuSans-35" transform="translate(63.623047 0)"/>
     <use xlink:href="#DejaVuSans-2e" transform="translate(127.246094 0)"/>
     <use xlink:href="#DejaVuSans-37" transform="translate(159.033203 0)"/>
    </g>
   </g>
   <g id="text_10">
    <!-- 90.1 -->
    <g transform="translate(341.869996 82.801491) scale(0.14 -0.14)">
     <use xlink:href="#DejaVuSans-39"/>
     <use xlink:href="#DejaVuSans-30" transform="translate(63.623047 0)"/>
     <use xlink:href="#DejaVuSans-2e" transform="translate(127.246094 0)"/>
     <use xlink:href="#DejaVuSans-31" transform="translate(159.033203 0)"/>
    </g>
   </g>
   <g id="text_11">
    <!-- V* Bench -->
    <g transform="translate(166.733095 24.48) scale(0.18 -0.18)">
     <defs>
      <path id="DejaVuSans-2a" d="M 3009 3897 
L 1888 3291 
L 3009 2681 
L 2828 2375 
L 1778 3009 
L 1778 1831 
L 1422 1831 
L 1422 3009 
L 372 2375 
L 191 2681 
L 1313 3291 
L 191 3897 
L 372 4206 
L 1422 3572 
L 1422 4750 
L 1778 4750 
L 1778 3572 
L 2828 4206 
L 3009 3897 
z
" transform="scale(0.015625)"/>
      <path id="DejaVuSans-20" transform="scale(0.015625)"/>
      <path id="DejaVuSans-63" d="M 3122 3366 
L 3122 2828 
Q 2878 2963 2633 3030 
Q 2388 3097 2138 3097 
Q 1578 3097 1268 2742 
Q 959 2388 959 1747 
Q 959 1106 1268 751 
Q 1578 397 2138 397 
Q 2388 397 2633 464 
Q 2878 531 3122 666 
L 3122 134 
Q 2881 22 2623 -34 
Q 2366 -91 2075 -91 
Q 1284 -91 818 406 
Q 353 903 353 1747 
Q 353 2603 823 3093 
Q 1294 3584 2113 3584 
Q 2378 3584 2631 3529 
Q 2884 3475 3122 3366 
z
" transform="scale(0.015625)"/>
      <path id="DejaVuSans-68" d="M 3513 2113 
L 3513 0 
L 2938 0 
L 2938 2094 
Q 2938 2591 2744 2837 
Q 2550 3084 2163 3084 
Q 1697 3084 1428 2787 
Q 1159 2491 1159 1978 
L 1159 0 
L 581 0 
L 581 4863 
L 1159 4863 
L 1159 2956 
Q 1366 3272 1645 3428 
Q 1925 3584 2291 3584 
Q 2894 3584 3203 3211 
Q 3513 2838 3513 2113 
z
" transform="scale(0.015625)"/>
     </defs>
     <use xlink:href="#DejaVuSans-56"/>
     <use xlink:href="#DejaVuSans-2a" transform="translate(68.408203 0)"/>
     <use xlink:href="#DejaVuSans-20" transform="translate(118.408203 0)"/>
     <use xlink:href="#DejaVuSans-42" transform="translate(150.195312 0)"/>
     <use xlink:href="#DejaVuSans-65" transform="translate(218.798828 0)"/>
     <use xlink:href="#DejaVuSans-6e" transform="translate(280.322266 0)"/>
     <use xlink:href="#DejaVuSans-63" transform="translate(343.701172 0)"/>
     <use xlink:href="#DejaVuSans-68" transform="translate(398.681641 0)"/>
    </g>
   </g>
  </g>
  <g id="axes_2">
   <g id="patch_9">
    <path d="M 418.315915 265.51427 
L 736.164603 265.51427 
L 736.164603 30.48 
L 418.315915 30.48 
z
" style="fill: #ffffff"/>
   </g>
   <g id="patch_10">
    <path d="M 432.763583 1095.046986 
L 490.554253 1095.046986 
L 490.554253 143.849471 
L 432.763583 143.849471 
z
" clip-path="url(#p6fb2398d34)" style="fill: #fcf8e9"/>
   </g>
   <g id="patch_11">
    <path d="M 509.81781 1095.046986 
L 567.608481 1095.046986 
L 567.608481 73.33919 
L 509.81781 73.33919 
z
" clip-path="url(#p6fb2398d34)" style="fill: #fbf5e1"/>
   </g>
   <g id="patch_12">
    <path d="M 586.872037 1095.046986 
L 644.662708 1095.046986 
L 644.662708 132.789035 
L 586.872037 132.789035 
z
" clip-path="url(#p6fb2398d34)" style="fill: #f8f0d0"/>
   </g>
   <g id="patch_13">
    <path d="M 663.926265 1095.046986 
L 721.716935 1095.046986 
L 721.716935 56.748536 
L 663.926265 56.748536 
z
" clip-path="url(#p6fb2398d34)" style="fill: #ffdf70"/>
   </g>
   <g id="matplotlib.axis_2">
    <g id="xtick_6">
     <g id="line2d_6">
      <g>
       <use xlink:href="#me3ee3412b7" x="461.658918" y="265.51427" style="stroke: #000000; stroke-width: 0.8"/>
      </g>
     </g>
     <g id="text_12">
      <!-- Qwen2.5VL-7B -->
      <g transform="translate(432.811613 341.339182) rotate(-45) scale(0.12 -0.12)">
       <use xlink:href="#DejaVuSans-51"/>
       <use xlink:href="#DejaVuSans-77" transform="translate(78.710938 0)"/>
       <use xlink:href="#DejaVuSans-65" transform="translate(160.498047 0)"/>
       <use xlink:href="#DejaVuSans-6e" transform="translate(222.021484 0)"/>
       <use xlink:href="#DejaVuSans-32" transform="translate(285.400391 0)"/>
       <use xlink:href="#DejaVuSans-2e" transform="translate(349.023438 0)"/>
       <use xlink:href="#DejaVuSans-35" transform="translate(380.810547 0)"/>
       <use xlink:href="#DejaVuSans-56" transform="translate(444.433594 0)"/>
       <use xlink:href="#DejaVuSans-4c" transform="translate(512.841797 0)"/>
       <use xlink:href="#DejaVuSans-2d" transform="translate(566.804688 0)"/>
       <use xlink:href="#DejaVuSans-37" transform="translate(602.888672 0)"/>
       <use xlink:href="#DejaVuSans-42" transform="translate(666.511719 0)"/>
      </g>
     </g>
    </g>
    <g id="xtick_7">
     <g id="line2d_7">
      <g>
       <use xlink:href="#me3ee3412b7" x="538.713145" y="265.51427" style="stroke: #000000; stroke-width: 0.8"/>
      </g>
     </g>
     <g id="text_13">
      <!-- Qwen2.5VL-32B -->
      <g transform="translate(507.16646 346.737943) rotate(-45) scale(0.12 -0.12)">
       <use xlink:href="#DejaVuSans-51"/>
       <use xlink:href="#DejaVuSans-77" transform="translate(78.710938 0)"/>
       <use xlink:href="#DejaVuSans-65" transform="translate(160.498047 0)"/>
       <use xlink:href="#DejaVuSans-6e" transform="translate(222.021484 0)"/>
       <use xlink:href="#DejaVuSans-32" transform="translate(285.400391 0)"/>
       <use xlink:href="#DejaVuSans-2e" transform="translate(349.023438 0)"/>
       <use xlink:href="#DejaVuSans-35" transform="translate(380.810547 0)"/>
       <use xlink:href="#DejaVuSans-56" transform="translate(444.433594 0)"/>
       <use xlink:href="#DejaVuSans-4c" transform="translate(512.841797 0)"/>
       <use xlink:href="#DejaVuSans-2d" transform="translate(566.804688 0)"/>
       <use xlink:href="#DejaVuSans-33" transform="translate(602.888672 0)"/>
       <use xlink:href="#DejaVuSans-32" transform="translate(666.511719 0)"/>
       <use xlink:href="#DejaVuSans-42" transform="translate(730.134766 0)"/>
      </g>
     </g>
    </g>
    <g id="xtick_8">
     <g id="line2d_8">
      <g>
       <use xlink:href="#me3ee3412b7" x="615.767373" y="265.51427" style="stroke: #000000; stroke-width: 0.8"/>
      </g>
     </g>
     <g id="text_14">
      <!-- ZoomEye -->
      <g transform="translate(598.075561 319.028196) rotate(-45) scale(0.12 -0.12)">
       <use xlink:href="#DejaVuSans-5a"/>
       <use xlink:href="#DejaVuSans-6f" transform="translate(68.505859 0)"/>
       <use xlink:href="#DejaVuSans-6f" transform="translate(129.6875 0)"/>
       <use xlink:href="#DejaVuSans-6d" transform="translate(190.869141 0)"/>
       <use xlink:href="#DejaVuSans-45" transform="translate(288.28125 0)"/>
       <use xlink:href="#DejaVuSans-79" transform="translate(351.464844 0)"/>
       <use xlink:href="#DejaVuSans-65" transform="translate(410.644531 0)"/>
      </g>
     </g>
    </g>
    <g id="xtick_9">
     <g id="line2d_9">
      <g>
       <use xlink:href="#me3ee3412b7" x="692.8216" y="265.51427" style="stroke: #000000; stroke-width: 0.8"/>
      </g>
     </g>
     <g id="text_15">
      <!-- DeepEyes -->
      <g transform="translate(673.969028 321.349716) rotate(-45) scale(0.12 -0.12)">
       <use xlink:href="#DejaVuSans-44"/>
       <use xlink:href="#DejaVuSans-65" transform="translate(77.001953 0)"/>
       <use xlink:href="#DejaVuSans-65" transform="translate(138.525391 0)"/>
       <use xlink:href="#DejaVuSans-70" transform="translate(200.048828 0)"/>
       <use xlink:href="#DejaVuSans-45" transform="translate(263.525391 0)"/>
       <use xlink:href="#DejaVuSans-79" transform="translate(326.708984 0)"/>
       <use xlink:href="#DejaVuSans-65" transform="translate(385.888672 0)"/>
       <use xlink:href="#DejaVuSans-73" transform="translate(447.412109 0)"/>
      </g>
     </g>
    </g>
   </g>
   <g id="patch_14">
    <path d="M 418.315915 265.51427 
L 736.164603 265.51427 
" style="fill: none; stroke: #000000; stroke-width: 0.8; stroke-linejoin: miter; stroke-linecap: square"/>
   </g>
   <g id="text_16">
    <!-- 68.8 -->
    <g transform="translate(446.072981 134.025136) scale(0.14 -0.14)">
     <use xlink:href="#DejaVuSans-36"/>
     <use xlink:href="#DejaVuSans-38" transform="translate(63.623047 0)"/>
     <use xlink:href="#DejaVuSans-2e" transform="translate(127.246094 0)"/>
     <use xlink:href="#DejaVuSans-38" transform="translate(159.033203 0)"/>
    </g>
   </g>
   <g id="text_17">
    <!-- 73.9 -->
    <g transform="translate(523.127208 63.514855) scale(0.14 -0.14)">
     <use xlink:href="#DejaVuSans-37"/>
     <use xlink:href="#DejaVuSans-33" transform="translate(63.623047 0)"/>
     <use xlink:href="#DejaVuSans-2e" transform="translate(127.246094 0)"/>
     <use xlink:href="#DejaVuSans-39" transform="translate(159.033203 0)"/>
    </g>
   </g>
   <g id="text_18">
    <!-- 69.6 -->
    <g transform="translate(600.181435 122.9647) scale(0.14 -0.14)">
     <use xlink:href="#DejaVuSans-36"/>
     <use xlink:href="#DejaVuSans-39" transform="translate(63.623047 0)"/>
     <use xlink:href="#DejaVuSans-2e" transform="translate(127.246094 0)"/>
     <use xlink:href="#DejaVuSans-36" transform="translate(159.033203 0)"/>
    </g>
   </g>
   <g id="text_19">
    <!-- 75.1 -->
    <g transform="translate(677.235662 46.924201) scale(0.14 -0.14)">
     <use xlink:href="#DejaVuSans-37"/>
     <use xlink:href="#DejaVuSans-35" transform="translate(63.623047 0)"/>
     <use xlink:href="#DejaVuSans-2e" transform="translate(127.246094 0)"/>
     <use xlink:href="#DejaVuSans-31" transform="translate(159.033203 0)"/>
    </g>
   </g>
   <g id="text_20">
    <!-- HR-Bench 4K -->
    <g transform="translate(519.100259 24.48) scale(0.18 -0.18)">
     <defs>
      <path id="DejaVuSans-48" d="M 628 4666 
L 1259 4666 
L 1259 2753 
L 3553 2753 
L 3553 4666 
L 4184 4666 
L 4184 0 
L 3553 0 
L 3553 2222 
L 1259 2222 
L 1259 0 
L 628 0 
L 628 4666 
z
" transform="scale(0.015625)"/>
      <path id="DejaVuSans-52" d="M 2841 2188 
Q 3044 2119 3236 1894 
Q 3428 1669 3622 1275 
L 4263 0 
L 3584 0 
L 2988 1197 
Q 2756 1666 2539 1819 
Q 2322 1972 1947 1972 
L 1259 1972 
L 1259 0 
L 628 0 
L 628 4666 
L 2053 4666 
Q 2853 4666 3247 4331 
Q 3641 3997 3641 3322 
Q 3641 2881 3436 2590 
Q 3231 2300 2841 2188 
z
M 1259 4147 
L 1259 2491 
L 2053 2491 
Q 2509 2491 2742 2702 
Q 2975 2913 2975 3322 
Q 2975 3731 2742 3939 
Q 2509 4147 2053 4147 
L 1259 4147 
z
" transform="scale(0.015625)"/>
      <path id="DejaVuSans-34" d="M 2419 4116 
L 825 1625 
L 2419 1625 
L 2419 4116 
z
M 2253 4666 
L 3047 4666 
L 3047 1625 
L 3713 1625 
L 3713 1100 
L 3047 1100 
L 3047 0 
L 2419 0 
L 2419 1100 
L 313 1100 
L 313 1709 
L 2253 4666 
z
" transform="scale(0.015625)"/>
      <path id="DejaVuSans-4b" d="M 628 4666 
L 1259 4666 
L 1259 2694 
L 3353 4666 
L 4166 4666 
L 1850 2491 
L 4331 0 
L 3500 0 
L 1259 2247 
L 1259 0 
L 628 0 
L 628 4666 
z
" transform="scale(0.015625)"/>
     </defs>
     <use xlink:href="#DejaVuSans-48"/>
     <use xlink:href="#DejaVuSans-52" transform="translate(75.195312 0)"/>
     <use xlink:href="#DejaVuSans-2d" transform="translate(140.677734 0)"/>
     <use xlink:href="#DejaVuSans-42" transform="translate(173.136719 0)"/>
     <use xlink:href="#DejaVuSans-65" transform="translate(241.740234 0)"/>
     <use xlink:href="#DejaVuSans-6e" transform="translate(303.263672 0)"/>
     <use xlink:href="#DejaVuSans-63" transform="translate(366.642578 0)"/>
     <use xlink:href="#DejaVuSans-68" transform="translate(421.623047 0)"/>
     <use xlink:href="#DejaVuSans-20" transform="translate(485.001953 0)"/>
     <use xlink:href="#DejaVuSans-34" transform="translate(516.789062 0)"/>
     <use xlink:href="#DejaVuSans-4b" transform="translate(580.412109 0)"/>
    </g>
   </g>
  </g>
  <g id="axes_3">
   <g id="patch_15">
    <path d="M 751.351312 265.51427 
L 1069.2 265.51427 
L 1069.2 30.48 
L 751.351312 30.48 
z
" style="fill: #ffffff"/>
   </g>
   <g id="patch_16">
    <path d="M 765.79898 700.762917 
L 823.58965 700.762917 
L 823.58965 132.328183 
L 765.79898 132.328183 
z
" clip-path="url(#pca253c0c6d)" style="fill: #fcf8e9"/>
   </g>
   <g id="patch_17">
    <path d="M 842.853207 700.762917 
L 900.643878 700.762917 
L 900.643878 87.932821 
L 842.853207 87.932821 
z
" clip-path="url(#pca253c0c6d)" style="fill: #fbf5e1"/>
   </g>
   <g id="patch_18">
    <path d="M 919.907435 700.762917 
L 977.698105 700.762917 
L 977.698105 97.508292 
L 919.907435 97.508292 
z
" clip-path="url(#pca253c0c6d)" style="fill: #f8f0d0"/>
   </g>
   <g id="patch_19">
    <path d="M 996.961662 700.762917 
L 1054.752332 700.762917 
L 1054.752332 68.781881 
L 996.961662 68.781881 
z
" clip-path="url(#pca253c0c6d)" style="fill: #ffdf70"/>
   </g>
   <g id="matplotlib.axis_3">
    <g id="xtick_10">
     <g id="line2d_10">
      <g>
       <use xlink:href="#me3ee3412b7" x="794.694315" y="265.51427" style="stroke: #000000; stroke-width: 0.8"/>
      </g>
     </g>
     <g id="text_21">
      <!-- Qwen2.5VL-7B -->
      <g transform="translate(765.84701 341.339182) rotate(-45) scale(0.12 -0.12)">
       <use xlink:href="#DejaVuSans-51"/>
       <use xlink:href="#DejaVuSans-77" transform="translate(78.710938 0)"/>
       <use xlink:href="#DejaVuSans-65" transform="translate(160.498047 0)"/>
       <use xlink:href="#DejaVuSans-6e" transform="translate(222.021484 0)"/>
       <use xlink:href="#DejaVuSans-32" transform="translate(285.400391 0)"/>
       <use xlink:href="#DejaVuSans-2e" transform="translate(349.023438 0)"/>
       <use xlink:href="#DejaVuSans-35" transform="translate(380.810547 0)"/>
       <use xlink:href="#DejaVuSans-56" transform="translate(444.433594 0)"/>
       <use xlink:href="#DejaVuSans-4c" transform="translate(512.841797 0)"/>
       <use xlink:href="#DejaVuSans-2d" transform="translate(566.804688 0)"/>
       <use xlink:href="#DejaVuSans-37" transform="translate(602.888672 0)"/>
       <use xlink:href="#DejaVuSans-42" transform="translate(666.511719 0)"/>
      </g>
     </g>
    </g>
    <g id="xtick_11">
     <g id="line2d_11">
      <g>
       <use xlink:href="#me3ee3412b7" x="871.748543" y="265.51427" style="stroke: #000000; stroke-width: 0.8"/>
      </g>
     </g>
     <g id="text_22">
      <!-- Qwen2.5VL-32B -->
      <g transform="translate(840.201857 346.737943) rotate(-45) scale(0.12 -0.12)">
       <use xlink:href="#DejaVuSans-51"/>
       <use xlink:href="#DejaVuSans-77" transform="translate(78.710938 0)"/>
       <use xlink:href="#DejaVuSans-65" transform="translate(160.498047 0)"/>
       <use xlink:href="#DejaVuSans-6e" transform="translate(222.021484 0)"/>
       <use xlink:href="#DejaVuSans-32" transform="translate(285.400391 0)"/>
       <use xlink:href="#DejaVuSans-2e" transform="translate(349.023438 0)"/>
       <use xlink:href="#DejaVuSans-35" transform="translate(380.810547 0)"/>
       <use xlink:href="#DejaVuSans-56" transform="translate(444.433594 0)"/>
       <use xlink:href="#DejaVuSans-4c" transform="translate(512.841797 0)"/>
       <use xlink:href="#DejaVuSans-2d" transform="translate(566.804688 0)"/>
       <use xlink:href="#DejaVuSans-33" transform="translate(602.888672 0)"/>
       <use xlink:href="#DejaVuSans-32" transform="translate(666.511719 0)"/>
       <use xlink:href="#DejaVuSans-42" transform="translate(730.134766 0)"/>
      </g>
     </g>
    </g>
    <g id="xtick_12">
     <g id="line2d_12">
      <g>
       <use xlink:href="#me3ee3412b7" x="948.80277" y="265.51427" style="stroke: #000000; stroke-width: 0.8"/>
      </g>
     </g>
     <g id="text_23">
      <!-- ZoomEye -->
      <g transform="translate(931.110958 319.028196) rotate(-45) scale(0.12 -0.12)">
       <use xlink:href="#DejaVuSans-5a"/>
       <use xlink:href="#DejaVuSans-6f" transform="translate(68.505859 0)"/>
       <use xlink:href="#DejaVuSans-6f" transform="translate(129.6875 0)"/>
       <use xlink:href="#DejaVuSans-6d" transform="translate(190.869141 0)"/>
       <use xlink:href="#DejaVuSans-45" transform="translate(288.28125 0)"/>
       <use xlink:href="#DejaVuSans-79" transform="translate(351.464844 0)"/>
       <use xlink:href="#DejaVuSans-65" transform="translate(410.644531 0)"/>
      </g>
     </g>
    </g>
    <g id="xtick_13">
     <g id="line2d_13">
      <g>
       <use xlink:href="#me3ee3412b7" x="1025.856997" y="265.51427" style="stroke: #000000; stroke-width: 0.8"/>
      </g>
     </g>
     <g id="text_24">
      <!-- DeepEyes -->
      <g transform="translate(1007.004425 321.349716) rotate(-45) scale(0.12 -0.12)">
       <use xlink:href="#DejaVuSans-44"/>
       <use xlink:href="#DejaVuSans-65" transform="translate(77.001953 0)"/>
       <use xlink:href="#DejaVuSans-65" transform="translate(138.525391 0)"/>
       <use xlink:href="#DejaVuSans-70" transform="translate(200.048828 0)"/>
       <use xlink:href="#DejaVuSans-45" transform="translate(263.525391 0)"/>
       <use xlink:href="#DejaVuSans-79" transform="translate(326.708984 0)"/>
       <use xlink:href="#DejaVuSans-65" transform="translate(385.888672 0)"/>
       <use xlink:href="#DejaVuSans-73" transform="translate(447.412109 0)"/>
      </g>
     </g>
    </g>
   </g>
   <g id="patch_20">
    <path d="M 751.351312 265.51427 
L 1069.2 265.51427 
" style="fill: none; stroke: #000000; stroke-width: 0.8; stroke-linejoin: miter; stroke-linecap: square"/>
   </g>
   <g id="text_25">
    <!-- 65.3 -->
    <g transform="translate(779.108378 125.064135) scale(0.14 -0.14)">
     <use xlink:href="#DejaVuSans-36"/>
     <use xlink:href="#DejaVuSans-35" transform="translate(63.623047 0)"/>
     <use xlink:href="#DejaVuSans-2e" transform="translate(127.246094 0)"/>
     <use xlink:href="#DejaVuSans-33" transform="translate(159.033203 0)"/>
    </g>
   </g>
   <g id="text_26">
    <!-- 70.4 -->
    <g transform="translate(856.162605 80.668772) scale(0.14 -0.14)">
     <use xlink:href="#DejaVuSans-37"/>
     <use xlink:href="#DejaVuSans-30" transform="translate(63.623047 0)"/>
     <use xlink:href="#DejaVuSans-2e" transform="translate(127.246094 0)"/>
     <use xlink:href="#DejaVuSans-34" transform="translate(159.033203 0)"/>
    </g>
   </g>
   <g id="text_27">
    <!-- 69.3 -->
    <g transform="translate(933.216832 90.244243) scale(0.14 -0.14)">
     <use xlink:href="#DejaVuSans-36"/>
     <use xlink:href="#DejaVuSans-39" transform="translate(63.623047 0)"/>
     <use xlink:href="#DejaVuSans-2e" transform="translate(127.246094 0)"/>
     <use xlink:href="#DejaVuSans-33" transform="translate(159.033203 0)"/>
    </g>
   </g>
   <g id="text_28">
    <!-- 72.6 -->
    <g transform="translate(1010.27106 61.517832) scale(0.14 -0.14)">
     <use xlink:href="#DejaVuSans-37"/>
     <use xlink:href="#DejaVuSans-32" transform="translate(63.623047 0)"/>
     <use xlink:href="#DejaVuSans-2e" transform="translate(127.246094 0)"/>
     <use xlink:href="#DejaVuSans-36" transform="translate(159.033203 0)"/>
    </g>
   </g>
   <g id="text_29">
    <!-- HR-Bench 8K -->
    <g transform="translate(852.135656 24.48) scale(0.18 -0.18)">
     <use xlink:href="#DejaVuSans-48"/>
     <use xlink:href="#DejaVuSans-52" transform="translate(75.195312 0)"/>
     <use xlink:href="#DejaVuSans-2d" transform="translate(140.677734 0)"/>
     <use xlink:href="#DejaVuSans-42" transform="translate(173.136719 0)"/>
     <use xlink:href="#DejaVuSans-65" transform="translate(241.740234 0)"/>
     <use xlink:href="#DejaVuSans-6e" transform="translate(303.263672 0)"/>
     <use xlink:href="#DejaVuSans-63" transform="translate(366.642578 0)"/>
     <use xlink:href="#DejaVuSans-68" transform="translate(421.623047 0)"/>
     <use xlink:href="#DejaVuSans-20" transform="translate(485.001953 0)"/>
     <use xlink:href="#DejaVuSans-38" transform="translate(516.789062 0)"/>
     <use xlink:href="#DejaVuSans-4b" transform="translate(580.412109 0)"/>
    </g>
   </g>
  </g>
 </g>
 <defs>
  <clipPath id="p014bd891b1">
   <rect x="13.508234" y="30.48" width="389.620972" height="235.03427"/>
  </clipPath>
  <clipPath id="p6fb2398d34">
   <rect x="418.315915" y="30.48" width="317.848688" height="235.03427"/>
  </clipPath>
  <clipPath id="pca253c0c6d">
   <rect x="751.351312" y="30.48" width="317.848688" height="235.03427"/>
  </clipPath>
 </defs>
</svg>
